# xmcd
#
# Track frame offsets:
#	150
#	10260
#	23247
#	34717
#	47012
#	58820
#	68415
#	80710
#	95722
#	108285
#	120760
#	135060
#	144690
#	154797
#	165357
#	180132
#	191475
#	203667
#	213592
#	224137
#
# Disc length: 3151
#
# Revision: 2
# Processed by: cddbd v1.5.1PL0 Copyright (c) Steve Scherf et al.
# Submitted via: CDex 1.40Release
# Normalized: r1:TDELIM( - )
#
DISCID=0a0c4d14
DTITLE=Various Artist - Country Love - Sentimental Country
DYEAR=1997
DGENRE=Country
TTITLE0=Kitty Wells - I can't stop loving you
TTITLE1=Charlie Rich - The most beautiful girl
TTITLE2=Skeeter Davis - Gonna get along without you now
TTITLE3=Moe Bandy - Street of Laredo
TTITLE4=Wilma Burgess - Misty Blue
TTITLE5=Bill Phillips - The company you keep
TTITLE6=Sammi Smith - Send me the pillow you dream on
TTITLE7=Ray Price - The old rugged cross
TTITLE8=Wanda Jackson - Crazy
TTITLE9=Charlie Rich - Behind closed doors
TTITLE10=Margo Smith - It only hurts for a little while
TTITLE11=Roy Drusky - Second hand rose
TTITLE12=Susan Raye - Pitty pitty patter
TTITLE13=Hank Locklin - Let me be the one
TTITLE14=Marion Worth - Shake me I rattle
TTITLE15=Don Gibson - Just one time
TTITLE16=Lynn Anderson - How can I unlove you?
TTITLE17=Ray Price - Make the world go away
TTITLE18=Barbara Fairchild - Kid stuff
TTITLE19=Merle Haggard - I take a lot of pride in what I am
EXTD=YEAR: 1997 ID3G: 2
EXTT0=
EXTT1=
EXTT2=
EXTT3=
EXTT4=
EXTT5=
EXTT6=
EXTT7=
EXTT8=
EXTT9=
EXTT10=
EXTT11=
EXTT12=
EXTT13=
EXTT14=
EXTT15=
EXTT16=
EXTT17=
EXTT18=
EXTT19=
PLAYORDER=
